<svg width="120" height="120" viewBox="0 0 120 120" fill="none" xmlns="http://www.w3.org/2000/svg">
<g clip-path="url(#clip0_34_384)">
<path d="M25.1611 46.4516C25.1611 58.21 34.693 67.7419 46.4515 67.7419V25.1613C34.693 25.1613 25.1611 34.6931 25.1611 46.4516Z" fill="#A8DCEC"/>
<path d="M112.258 65.8064H69.6772V46.4515H112.258V65.8064Z" fill="#F9BDBD"/>
<path d="M104.516 32.9032H73.5483V25.1613H104.516V32.9032Z" fill="#F7DEA6"/>
<path d="M114.194 38.7097H112.258V15.4839H19.3548V0H9.67742C4.34161 0 0 4.34161 0 9.67742V83.2258C0 88.5616 4.34161 92.9032 9.67742 92.9032H61.9355V114.194C61.9355 117.394 64.541 120 67.7419 120H114.194C117.394 120 120 117.394 120 114.194V44.5161C120 41.3152 117.394 38.7097 114.194 38.7097ZM3.87097 9.67742C3.87097 6.4765 6.4765 3.87097 9.67742 3.87097H15.4839V73.5484H9.67742C7.5 73.5484 5.48891 74.2723 3.87097 75.4876V9.67742ZM9.67742 89.0323C6.4765 89.0323 3.87097 86.4267 3.87097 83.2258C3.87097 80.0249 6.4765 77.4193 9.67742 77.4193H19.3548V19.3548H108.387V38.7097H68.342C65.092 29.5218 56.3114 23.2258 46.4516 23.2258C33.6442 23.2258 23.2258 33.6442 23.2258 46.4516C23.2258 59.2591 33.6442 69.6774 46.4516 69.6774C52.2193 69.6774 57.7158 67.5113 61.9355 63.7377V89.0323H9.67742ZM61.9355 44.5161H48.3871V27.2055C55.682 27.9426 62.0035 32.787 64.5798 39.6585C62.9902 40.6952 61.9355 42.4824 61.9355 44.5161ZM44.5161 65.7082C34.7499 64.7338 27.0968 56.4693 27.0968 46.4516C27.0968 36.434 34.7499 28.1694 44.5161 27.1951V65.7082ZM48.3871 48.3871H61.9355V58.022C58.676 62.3749 53.7522 65.1468 48.3871 65.6883V48.3871ZM116.129 114.194C116.129 115.26 115.26 116.129 114.194 116.129H67.7419C66.6759 116.129 65.8064 115.26 65.8064 114.194V44.5161C65.8064 43.4501 66.6759 42.5806 67.7419 42.5806H114.194C115.26 42.5806 116.129 43.4501 116.129 44.5161V114.194Z" fill="black"/>
<path d="M100.645 112.258H112.258V100.645H100.645V112.258ZM104.516 104.516H108.387V108.387H104.516V104.516Z" fill="black"/>
<path d="M85.1611 112.258H96.774V100.645H85.1611V112.258ZM89.0321 104.516H92.9031V108.387H89.0321V104.516Z" fill="black"/>
<path d="M69.6772 112.258H81.2902V100.645H69.6772V112.258ZM73.5482 104.516H77.4192V108.387H73.5482V104.516Z" fill="black"/>
<path d="M100.645 96.7742H112.258V85.1613H100.645V96.7742ZM104.516 89.0322H108.387V92.9032H104.516V89.0322Z" fill="black"/>
<path d="M85.1611 96.7742H96.774V85.1613H85.1611V96.7742ZM89.0321 89.0322H92.9031V92.9032H89.0321V89.0322Z" fill="black"/>
<path d="M69.6772 96.7742H81.2902V85.1613H69.6772V96.7742ZM73.5482 89.0322H77.4192V92.9032H73.5482V89.0322Z" fill="black"/>
<path d="M100.645 81.2903H112.258V69.6774H100.645V81.2903ZM104.516 73.5483H108.387V77.4193H104.516V73.5483Z" fill="black"/>
<path d="M85.1611 81.2903H96.774V69.6774H85.1611V81.2903ZM89.0321 73.5483H92.9031V77.4193H89.0321V73.5483Z" fill="black"/>
<path d="M69.6772 81.2903H81.2902V69.6774H69.6772V81.2903ZM73.5482 73.5483H77.4192V77.4193H73.5482V73.5483Z" fill="black"/>
<path d="M73.5483 23.2258H104.516V27.0968H73.5483V23.2258Z" fill="black"/>
<path d="M73.5483 30.9678H104.516V34.8387H73.5483V30.9678Z" fill="black"/>
<path d="M73.5483 58.0645H108.387V61.9354H73.5483V58.0645Z" fill="black"/>
</g>
<defs>
<clipPath id="clip0_34_384">
<rect width="120" height="120" fill="white"/>
</clipPath>
</defs>
</svg>
