<svg width="120" height="120" viewBox="0 0 120 120" fill="none" xmlns="http://www.w3.org/2000/svg">
<path d="M50.3225 94.8386V1.93542H27.0967V94.8386V98.7096V118.064H92.9031V94.8386H50.3225Z" fill="#F7DEA6"/>
<path d="M52.2579 92.9032V0H25.1611V120H94.8386V92.9032H52.2579ZM48.3869 3.87097V94.0374L34.7011 107.723L37.4379 110.46L51.1237 96.7742H90.9676V104.516H52.2579V116.129H31.7689L34.2715 113.626L31.5347 110.89L29.0321 113.392V98.7097H42.5805V94.8387H29.0321V90.9677H34.8386V87.0968H29.0321V83.2258H42.5805V79.3548H29.0321V75.4839H34.8386V71.6129H29.0321V67.7419H42.5805V63.871H29.0321V60H34.8386V56.129H29.0321V52.2581H42.5805V48.3871H29.0321V44.5161H34.8386V40.6452H29.0321V36.7742H42.5805V32.9032H29.0321V29.0323H34.8386V25.1613H29.0321V3.87097H48.3869ZM63.8708 108.387H67.7418V116.129H63.8708V108.387ZM59.9998 116.129H56.1289V108.387H59.9998V116.129ZM71.6128 108.387H75.4837V116.129H71.6128V108.387ZM79.3547 108.387H83.2257V116.129H79.3547V108.387ZM87.0966 116.129V108.387H90.9676V116.129H87.0966Z" fill="#333333"/>
<path d="M38.7093 19.3548C41.9106 19.3548 44.5157 16.7497 44.5157 13.5484C44.5157 10.3471 41.9106 7.74194 38.7093 7.74194C35.508 7.74194 32.9028 10.3471 32.9028 13.5484C32.9028 16.7497 35.508 19.3548 38.7093 19.3548ZM38.7093 11.6129C39.7777 11.6129 40.6448 12.48 40.6448 13.5484C40.6448 14.6168 39.7777 15.4839 38.7093 15.4839C37.6409 15.4839 36.7738 14.6168 36.7738 13.5484C36.7738 12.48 37.6409 11.6129 38.7093 11.6129Z" fill="#333333"/>
</svg>
