<svg width="120" height="120" viewBox="0 0 120 120" fill="none" xmlns="http://www.w3.org/2000/svg">
<path d="M54.1939 21.2904H7.74219V52.258H54.1939V21.2904Z" fill="#F9BDBD"/>
<path d="M114.193 11.6128H5.80657C2.60536 11.6128 0 14.2181 0 17.4194V89.0321C0 92.2333 2.60536 94.8387 5.80657 94.8387H38.7096V104.516H29.032V108.387H90.9676V104.516H81.2903V94.8387H114.193C117.395 94.8387 120 92.2333 120 89.0321V17.4194C120 14.2181 117.395 11.6128 114.193 11.6128ZM5.80657 15.4838H114.194C115.262 15.4838 116.129 16.3528 116.129 17.4194V77.4194H3.87105V17.4194C3.87105 16.3528 4.73801 15.4838 5.80657 15.4838ZM77.4193 104.516H42.5807V94.8387H77.4193V104.516ZM114.193 90.9676H5.80657C4.73801 90.9676 3.87105 90.0986 3.87105 89.0321V81.2904H116.129V89.0325C116.129 90.0986 115.262 90.9676 114.193 90.9676Z" fill="#333333"/>
<path d="M67.9684 58.0646H73.5486V58.4206C71.3013 59.2217 69.6775 61.3511 69.6775 63.8711C69.6775 67.0723 72.2829 69.6777 75.4841 69.6777C78.0041 69.6777 80.1331 68.0539 80.9346 65.8066H97.1325C97.9337 68.0539 100.063 69.6777 102.583 69.6777C105.784 69.6777 108.39 67.0723 108.39 63.8711C108.39 61.3511 106.766 59.2221 104.519 58.4206V58.0646H110.141L112.464 34.8387H71.6127V38.7097H108.184L106.635 54.1935H71.3859L67.5148 23.226H59.9995V27.097H64.0974L67.9684 58.0646ZM97.1301 61.9356H80.9322C80.3477 60.2964 79.0568 59.0051 77.4172 58.4206V58.0646H100.643V58.4206C99.0059 59.0051 97.7146 60.2964 97.1301 61.9356ZM75.4837 65.8066C74.4151 65.8066 73.5482 64.9377 73.5482 63.8711C73.5482 62.8046 74.4151 61.9356 75.4837 61.9356C76.5523 61.9356 77.4192 62.8046 77.4192 63.8711C77.4192 64.9377 76.5523 65.8066 75.4837 65.8066ZM102.581 65.8066C101.512 65.8066 100.645 64.9377 100.645 63.8711C100.645 62.8046 101.512 61.9356 102.581 61.9356C103.649 61.9356 104.516 62.8046 104.516 63.8711C104.516 64.9377 103.649 65.8066 102.581 65.8066Z" fill="#333333"/>
<path d="M104.516 44.5162H73.5483V48.3873H104.516V44.5162Z" fill="#333333"/>
<path d="M54.1939 58.0646H7.74219V61.9356H54.1939V58.0646Z" fill="#333333"/>
<path d="M54.1939 67.7422H7.74219V71.6132H54.1939V67.7422Z" fill="#333333"/>
</svg>
